<?xml version="1.0" encoding="utf-8"?>
<?xml-stylesheet type="text/xsl" href="rss1.xsl"?>
<rss version="2.0" xmlns:atom="http://www.w3.org/2005/Atom" xmlns:content="http://purl.org/rss/1.0/modules/content/" xmlns:dc="http://purl.org/dc/elements/1.1/" xmlns:media="http://search.yahoo.com/mrss/">
<channel>
 <title>Getty</title>
 <link>http://www.gettyimg.com/</link>
 <atom:link href="http://www.gettyimg.com/" rel="self" type="application/rss+xml" />

 
                <item>
                <title><![CDATA[【Cinema Center】MOVIE - Hocus.Pocus.2.2022.1080p.DSNP.WEB-DL.DDP5.1.Atmos.H.264-Samuel]]></title>
                <link><![CDATA[https://sharemania.us/threads/hocus-pocus-2-2022-1080p-dsnp-web-dl-ddp5-1-atmos-h-264-samuel.244999/]]></link>
                <description><![CDATA[<article>
<blockquote class="messageText SelectQuoteContainer ugc baseHtml">
<div style="text-align: center"><b><span style="font-size: 26px">Hocus Pocus 2</span></b><br>
<img src="https://i.imgur.com/Zcs1yt2.jpg" class="bbCodeImage LbImage" alt="[​IMG]" data-url="https://i.imgur.com/Zcs1yt2.jpg" style=""><br>
<b><a href="https://i.imgur.com/3116WXg.jpeg" target="_blank" class="externalLink" rel="nofollow">Alternate Artwork 1</a></b> | <b><a href="https://i.imgur.com/rZMEpsP.jpg" target="_blank" class="externalLink" rel="nofollow">Alternate Artwork 2</a></b> | <b><a href="https://i.imgur.com/SN74mXi.jpg" target="_blank" class="externalLink" rel="nofollow">Alternate Artwork 3</a></b> | <b><a href="https://i.imgur.com/rRgkhs1.jpg" target="_blank" class="externalLink" rel="nofollow">Alternate Artwork 4</a></b> | <b><a href="https://i.imgur.com/pX4MEJn.png" target="_blank" class="externalLink" rel="nofollow">Alternate Artwork 5</a></b> | <b><a href="https://i.imgur.com/CaNDwPg.jpg" target="_blank" class="externalLink" rel="nofollow">Alternate Artwork 6</a></b> | <b><a href="https://i.imgur.com/jFeApmb.jpg" target="_blank" class="externalLink" rel="nofollow">Alternate Artwork 7</a></b> | <b><a href="https://i.imgur.com/SqEeQ7x.jpeg" target="_blank" class="externalLink" rel="nofollow">Alternate Artwork 8</a></b> | <b><a href="https://i.imgur.com/kaXcAbg.jpg" target="_blank" class="externalLink" rel="nofollow">Header 1</a></b> | <b><a href="https://i.imgur.com/ZxoTq9P.jpg" target="_blank" class="externalLink" rel="nofollow">Header 2</a></b> | <b><a href="https://i.imgur.com/e9FSsoX.jpg" target="_blank" class="externalLink" rel="nofollow">Header 3</a></b> | <b><a href="https://i.imgur.com/944RoSU.jpg" target="_blank" class="externalLink" rel="nofollow">Header 4</a></b> | <b><a href="https://i.imgur.com/wUYHHvA.jpg" target="_blank" class="externalLink" rel="nofollow">Poster 1</a></b> | <b><a href="https://i.imgur.com/HWvlxe9.jpg" target="_blank" class="externalLink" rel="nofollow">Poster 2</a></b> | <b><a href="https://i.imgur.com/MARGqND.jpg" target="_blank" class="externalLink" rel="nofollow">Poster 3</a></b> | <b><a href="https://i.imgur.com/X26XmoG.jpg" target="_blank" class="externalLink" rel="nofollow">Poster 4</a></b> | <b><a href="https://i.imgur.com/FbNn360.jpeg" target="_blank" class="externalLink" rel="nofollow">Poster 5</a></b> | <b><a href="https://i.imgur.com/Ba22ApV.jpg" target="_blank" class="externalLink" rel="nofollow">Thumbnail</a></b> | <b><a href="https://i.imgur.com/wDJwGCr.jpeg" target="_blank" class="externalLink" rel="nofollow">Key Art</a></b><br>
<br>
<img src="https://i.imgur.com/qhRKRmw.png" class="bbCodeImage LbImage" alt="[​IMG]" data-url="https://i.imgur.com/qhRKRmw.png" style=""> <img src="https://i.imgur.com/ckHEWYh.png" class="bbCodeImage LbImage" alt="[​IMG]" data-url="https://i.imgur.com/ckHEWYh.png" style=""> <img src="https://i.imgur.com/YMzRyyQ.png" class="bbCodeImage LbImage" alt="[​IMG]" data-url="https://i.imgur.com/YMzRyyQ.png" style=""> <img src="https://i.imgur.com/p2a3QKq.png" class="bbCodeImage LbImage" alt="[​IMG]" data-url="https://i.imgur.com/p2a3QKq.png" style=""><br>
2022 • 1h 47m<br>
Family, Comedy, Fantasy<br>
<br>
<div class="bbCodeBlock bbCodeQuote">
<aside>
<blockquote class="quoteContainer"><div class="quote"><b><span style="font-size: 15px"><span style="font-family: 'Arial'">Description</span></span></b><br>
It’s been 29 years since someone lit the Black Flame Candle and resurrected the 17th-century Sanderson sisters, and they are looking for revenge. Now it is up to three high-school students to stop the ravenous witches from wreaking a new kind of havoc on Salem before dawn on All Hallow’s Eve.</div><div class="quoteExpand">Click to expand...</div></blockquote>
</aside>
</div>
<div class="bbCodeBlock bbCodeQuote">
<aside>
<blockquote class="quoteContainer"><div class="quote"><b><span style="font-size: 15px"><span style="font-family: 'Arial'">Trailers</span></span></b><br>
<span data-s9e-mediaembed="googledrive" style="display:inline-block;width:100%;max-width:640px"><span style="display:block;overflow:hidden;position:relative;padding-bottom:75%"><iframe allowfullscreen="" loading="lazy" scrolling="no" src="//drive.google.com/file/d/16e5tjp6f_kSBMR8fBYmnGPZB9qGnHAeX/preview" style="border:0;height:100%;left:0;position:absolute;width:100%"></iframe></span></span><br>
<b>Hocus Pocus 2 | Trailer</b><br>
View a promo of this release</div><div class="quoteExpand quoteCut">Click to expand...</div></blockquote>
</aside>
</div>
<div class="bbCodeBlock bbCodeQuote">
<aside>
<blockquote class="quoteContainer"><div class="quote"><b><span style="font-size: 15px"><span style="font-family: 'Arial'">More Information</span></span></b><br>
<b>Long Description:</b><br>
The live-action comedy “Hocus Pocus 2” is a haunting sequel to the 1993 Halloween cult classic which brings back the delightfully wicked Sanderson sisters for more comedic mayhem. It’s been 29 years since someone lit the Black Flame Candle and resurrected the 17th-century sisters, and they are looking for revenge. Now it is up to three high-school students to stop the ravenous witches from wreaking a new kind of havoc on Salem before dawn on All Hallow’s Eve.<br>
<br>
<br>
<br>
Some flashing lights sequences or patterns may affect photosensitive viewers.<br>
<b>Duration:</b> 1h 47m<br>
<b>Release Date:</b> 2022<br>
<b>Genre:</b> Family, Comedy, Fantasy<br>
<b>Rating:</b> <img src="https://i.imgur.com/qhRKRmw.png" class="bbCodeImage LbImage" alt="[​IMG]" data-url="https://i.imgur.com/qhRKRmw.png" style=""><br>
<b>Available in the following formats:</b> <img src="https://i.imgur.com/ckHEWYh.png" class="bbCodeImage LbImage" alt="[​IMG]" data-url="https://i.imgur.com/ckHEWYh.png" style=""> <img src="https://i.imgur.com/ZfL5Qvq.png" class="bbCodeImage LbImage" alt="[​IMG]" data-url="https://i.imgur.com/ZfL5Qvq.png" style=""> <img src="https://i.imgur.com/gx1o7rO.png" class="bbCodeImage LbImage" alt="[​IMG]" data-url="https://i.imgur.com/gx1o7rO.png" style=""> <img src="https://i.imgur.com/YMzRyyQ.png" class="bbCodeImage LbImage" alt="[​IMG]" data-url="https://i.imgur.com/YMzRyyQ.png" style=""> <img src="https://i.imgur.com/p2a3QKq.png" class="bbCodeImage LbImage" alt="[​IMG]" data-url="https://i.imgur.com/p2a3QKq.png" style=""><br>
<b>Director:</b> Anne Fletcher<br>
<b>Starring:</b> Bette Midler, Sarah Jessica Parker, Kathy Najimy, Sam Richardson, Doug Jones, Whitney Peak</div><div class="quoteExpand quoteCut">Click to expand...</div></blockquote>
</aside>
</div>
<div class="bbCodeBlock bbCodeQuote">
<aside>
<blockquote class="quoteContainer"><div class="quote"><b><span style="font-size: 15px">Source</span></b><br>
<img src="https://i.imgur.com/I198e8q.png" class="bbCodeImage LbImage" alt="[​IMG]" data-url="https://i.imgur.com/I198e8q.png" style=""></div><div class="quoteExpand">Click to expand...</div></blockquote>
</aside>
</div>
<div class="bbCodeBlock bbCodeQuote">
<aside>
<blockquote class="quoteContainer"><div class="quote"><b><span style="font-size: 15px">Release Name</span></b><br>
Hocus.Pocus.2.2022.1080p.DSNP.WEB-DL.DDP5.1.Atmos.H.264-Samuel</div><div class="quoteExpand">Click to expand...</div></blockquote>
</aside>
</div>
<div class="ToggleTriggerAnchor bbCodeSpoilerContainer">
<button type="button" class="button bbCodeSpoilerButton ToggleTrigger Tooltip JsOnly" data-target="> .SpoilerTarget"><span>Spoiler: <span class="SpoilerTitle">Media Information</span></span></button>
<div class="SpoilerTarget bbCodeSpoilerText">General<br>
Complete name : Hocus.Pocus.2.2022.1080p.DSNP.WEB-DL.DDP5.1.Atmos.H.264-Samuel.mkv<br>
Format : Matroska<br>
Format version : Version 4<br>
File size : 8.10 GiB<br>
Duration : 1 h 43 min<br>
Overall bit rate mode : Variable<br>
Overall bit rate : 11.2 Mb/s<br>
Frame rate : 24.000 FPS<br>
Encoded date : 2024-05-22 11:05:23 UTC<br>
Writing application : mkvmerge v84.0 ('Sleeper') 64-bit<br>
Writing library : libebml v1.4.5 + libmatroska v1.7.1<br>
<br>
Video<br>
ID : 1<br>
Format : AVC<br>
Format/Info : Advanced Video Codec<br>
Format profile : High@L4<br>
Format settings : CABAC / 4 Ref Frames<br>
Format settings, CABAC : Yes<br>
Format settings, Reference frames : 4 frames<br>
Codec ID : V_MPEG4/ISO/AVC<br>
Duration : 1 h 43 min<br>
Bit rate mode : Variable<br>
Bit rate : 6 443 kb/s<br>
Maximum bit rate : 12.7 Mb/s<br>
Width : 1 920 pixels<br>
Height : 1 080 pixels<br>
Display aspect ratio : 16:9<br>
Frame rate mode : Constant<br>
Frame rate : 24.000 FPS<br>
Color space : YUV<br>
Chroma subsampling : 4:2:0<br>
Bit depth : 8 bits<br>
Scan type : Progressive<br>
Bits/(Pixel*Frame) : 0.129<br>
Time code of first frame : 00:00:00;00<br>
Stream size : 4.66 GiB (58%)<br>
Default : Yes<br>
Forced : No<br>
Color range : Limited<br>
Color primaries : BT.709<br>
Transfer characteristics : BT.709<br>
Matrix coefficients : BT.709<br>
<br>
Audio #1<br>
ID : 2<br>
Format : E-AC-3 JOC<br>
Format/Info : Enhanced AC-3 with Joint Object Coding<br>
Commercial name : Dolby Digital Plus with Dolby Atmos<br>
Codec ID : A_EAC3<br>
Duration : 1 h 43 min<br>
Bit rate mode : Constant<br>
Bit rate : 768 kb/s<br>
Channel(s) : 6 channels<br>
Channel layout : L R C LFE Ls Rs<br>
Sampling rate : 48.0 kHz<br>
Frame rate : 31.250 FPS (1536 SPF)<br>
Compression mode : Lossy<br>
Stream size : 569 MiB (7%)<br>
Language : English<br>
Service kind : Complete Main<br>
Default : Yes<br>
Forced : No<br>
Complexity index : 16<br>
Number of dynamic objects : 15<br>
Bed channel count : 1 channel<br>
Bed channel configuration : LFE<br>
Dialog Normalization : -27 dB<br>
compr : -0.28 dB<br>
dmixmod : Lo/Ro<br>
ltrtcmixlev : -3.0 dB<br>
ltrtsurmixlev : -4.5 dB<br>
lorocmixlev : -3.0 dB<br>
lorosurmixlev : -4.5 dB<br>
dialnorm_Average : -27 dB<br>
dialnorm_Minimum : -27 dB<br>
dialnorm_Maximum : -27 dB<br>
<br>
Audio #2<br>
ID : 3<br>
Format : AAC LC<br>
Format/Info : Advanced Audio Codec Low Complexity<br>
Codec ID : A_AAC-2<br>
Duration : 1 h 43 min<br>
Bit rate : 125 kb/s<br>
Channel(s) : 2 channels<br>
Channel layout : L R<br>
Sampling rate : 48.0 kHz<br>
Frame rate : 46.875 FPS (1024 SPF)<br>
Compression mode : Lossy<br>
Stream size : 92.9 MiB (1%)<br>
Title : Audio Description<br>
Language : English<br>
Default : No<br>
Forced : No<br>
<br>
Audio #3<br>
ID : 4<br>
Format : E-AC-3<br>
Format/Info : Enhanced AC-3<br>
Commercial name : Dolby Digital Plus<br>
Codec ID : A_EAC3<br>
Duration : 1 h 43 min<br>
Bit rate mode : Constant<br>
Bit rate : 256 kb/s<br>
Channel(s) : 6 channels<br>
Channel layout : L R C LFE Ls Rs<br>
Sampling rate : 48.0 kHz<br>
Frame rate : 31.250 FPS (1536 SPF)<br>
Compression mode : Lossy<br>
Stream size : 190 MiB (2%)<br>
Title : Mandarin<br>
Language : Chinese<br>
Service kind : Complete Main<br>
Default : No<br>
Forced : No<br>
Dialog Normalization : -30 dB<br>
compr : -0.28 dB<br>
mixlevel : 105 dB<br>
roomtyp : Small<br>
dialnorm_Average : -30 dB<br>
dialnorm_Minimum : -30 dB<br>
dialnorm_Maximum : -30 dB<br>
<br>
Audio #4<br>
ID : 5<br>
Format : E-AC-3<br>
Format/Info : Enhanced AC-3<br>
Commercial name : Dolby Digital Plus<br>
Codec ID : A_EAC3<br>
Duration : 1 h 43 min<br>
Bit rate mode : Constant<br>
Bit rate : 256 kb/s<br>
Channel(s) : 6 channels<br>
Channel layout : L R C LFE Ls Rs<br>
Sampling rate : 48.0 kHz<br>
Frame rate : 31.250 FPS (1536 SPF)<br>
Compression mode : Lossy<br>
Stream size : 190 MiB (2%)<br>
Language : Czech<br>
Service kind : Complete Main<br>
Default : No<br>
Forced : No<br>
Dialog Normalization : -26 dB<br>
compr : -0.28 dB<br>
mixlevel : 105 dB<br>
roomtyp : Small<br>
dialnorm_Average : -26 dB<br>
dialnorm_Minimum : -26 dB<br>
dialnorm_Maximum : -26 dB<br>
<br>
Audio #5<br>
ID : 6<br>
Format : E-AC-3<br>
Format/Info : Enhanced AC-3<br>
Commercial name : Dolby Digital Plus<br>
Codec ID : A_EAC3<br>
Duration : 1 h 43 min<br>
Bit rate mode : Constant<br>
Bit rate : 256 kb/s<br>
Channel(s) : 6 channels<br>
Channel layout : L R C LFE Ls Rs<br>
Sampling rate : 48.0 kHz<br>
Frame rate : 31.250 FPS (1536 SPF)<br>
Compression mode : Lossy<br>
Stream size : 190 MiB (2%)<br>
Language : German<br>
Service kind : Complete Main<br>
Default : No<br>
Forced : No<br>
Dialog Normalization : -27 dB<br>
compr : -0.28 dB<br>
mixlevel : 105 dB<br>
roomtyp : Small<br>
dialnorm_Average : -27 dB<br>
dialnorm_Minimum : -27 dB<br>
dialnorm_Maximum : -27 dB<br>
<br>
Audio #6<br>
ID : 7<br>
Format : E-AC-3<br>
Format/Info : Enhanced AC-3<br>
Commercial name : Dolby Digital Plus<br>
Codec ID : A_EAC3<br>
Duration : 1 h 43 min<br>
Bit rate mode : Constant<br>
Bit rate : 256 kb/s<br>
Channel(s) : 6 channels<br>
Channel layout : L R C LFE Ls Rs<br>
Sampling rate : 48.0 kHz<br>
Frame rate : 31.250 FPS (1536 SPF)<br>
Compression mode : Lossy<br>
Stream size : 190 MiB (2%)<br>
Title : Latin American<br>
Language : Spanish<br>
Service kind : Complete Main<br>
Default : No<br>
Forced : No<br>
Dialog Normalization : -26 dB<br>
compr : -0.28 dB<br>
mixlevel : 105 dB<br>
roomtyp : Small<br>
dialnorm_Average : -26 dB<br>
dialnorm_Minimum : -26 dB<br>
dialnorm_Maximum : -26 dB<br>
<br>
Audio #7<br>
ID : 8<br>
Format : E-AC-3<br>
Format/Info : Enhanced AC-3<br>
Commercial name : Dolby Digital Plus<br>
Codec ID : A_EAC3<br>
Duration : 1 h 43 min<br>
Bit rate mode : Constant<br>
Bit rate : 256 kb/s<br>
Channel(s) : 6 channels<br>
Channel layout : L R C LFE Ls Rs<br>
Sampling rate : 48.0 kHz<br>
Frame rate : 31.250 FPS (1536 SPF)<br>
Compression mode : Lossy<br>
Stream size : 190 MiB (2%)<br>
Title : European<br>
Language : Spanish<br>
Service kind : Complete Main<br>
Default : No<br>
Forced : No<br>
Dialog Normalization : -27 dB<br>
compr : -0.28 dB<br>
mixlevel : 105 dB<br>
roomtyp : Small<br>
dialnorm_Average : -27 dB<br>
dialnorm_Minimum : -27 dB<br>
dialnorm_Maximum : -27 dB<br>
<br>
Audio #8<br>
ID : 9<br>
Format : E-AC-3<br>
Format/Info : Enhanced AC-3<br>
Commercial name : Dolby Digital Plus<br>
Codec ID : A_EAC3<br>
Duration : 1 h 43 min<br>
Bit rate mode : Constant<br>
Bit rate : 256 kb/s<br>
Channel(s) : 6 channels<br>
Channel layout : L R C LFE Ls Rs<br>
Sampling rate : 48.0 kHz<br>
Frame rate : 31.250 FPS (1536 SPF)<br>
Compression mode : Lossy<br>
Stream size : 190 MiB (2%)<br>
Language : French<br>
Service kind : Complete Main<br>
Default : No<br>
Forced : No<br>
Dialog Normalization : -27 dB<br>
compr : -0.28 dB<br>
mixlevel : 105 dB<br>
roomtyp : Small<br>
dialnorm_Average : -27 dB<br>
dialnorm_Minimum : -27 dB<br>
dialnorm_Maximum : -27 dB<br>
<br>
Audio #9<br>
ID : 10<br>
Format : E-AC-3<br>
Format/Info : Enhanced AC-3<br>
Commercial name : Dolby Digital Plus<br>
Codec ID : A_EAC3<br>
Duration : 1 h 43 min<br>
Bit rate mode : Constant<br>
Bit rate : 256 kb/s<br>
Channel(s) : 6 channels<br>
Channel layout : L R C LFE Ls Rs<br>
Sampling rate : 48.0 kHz<br>
Frame rate : 31.250 FPS (1536 SPF)<br>
Compression mode : Lossy<br>
Stream size : 190 MiB (2%)<br>
Language : Hungarian<br>
Service kind : Complete Main<br>
Default : No<br>
Forced : No<br>
Dialog Normalization : -27 dB<br>
compr : -0.28 dB<br>
mixlevel : 105 dB<br>
roomtyp : Small<br>
dialnorm_Average : -27 dB<br>
dialnorm_Minimum : -27 dB<br>
dialnorm_Maximum : -27 dB<br>
<br>
Audio #10<br>
ID : 11<br>
Format : E-AC-3<br>
Format/Info : Enhanced AC-3<br>
Commercial name : Dolby Digital Plus<br>
Codec ID : A_EAC3<br>
Duration : 1 h 43 min<br>
Bit rate mode : Constant<br>
Bit rate : 256 kb/s<br>
Channel(s) : 6 channels<br>
Channel layout : L R C LFE Ls Rs<br>
Sampling rate : 48.0 kHz<br>
Frame rate : 31.250 FPS (1536 SPF)<br>
Compression mode : Lossy<br>
Stream size : 190 MiB (2%)<br>
Language : Italian<br>
Service kind : Complete Main<br>
Default : No<br>
Forced : No<br>
Dialog Normalization : -27 dB<br>
compr : -0.28 dB<br>
mixlevel : 105 dB<br>
roomtyp : Small<br>
dialnorm_Average : -27 dB<br>
dialnorm_Minimum : -27 dB<br>
dialnorm_Maximum : -27 dB<br>
<br>
Audio #11<br>
ID : 12<br>
Format : E-AC-3<br>
Format/Info : Enhanced AC-3<br>
Commercial name : Dolby Digital Plus<br>
Codec ID : A_EAC3<br>
Duration : 1 h 43 min<br>
Bit rate mode : Constant<br>
Bit rate : 256 kb/s<br>
Channel(s) : 6 channels<br>
Channel layout : L R C LFE Ls Rs<br>
Sampling rate : 48.0 kHz<br>
Frame rate : 31.250 FPS (1536 SPF)<br>
Compression mode : Lossy<br>
Stream size : 190 MiB (2%)<br>
Language : Japanese<br>
Service kind : Complete Main<br>
Default : No<br>
Forced : No<br>
Dialog Normalization : -27 dB<br>
compr : -0.28 dB<br>
mixlevel : 105 dB<br>
roomtyp : Small<br>
dialnorm_Average : -27 dB<br>
dialnorm_Minimum : -27 dB<br>
dialnorm_Maximum : -27 dB<br>
<br>
Audio #12<br>
ID : 13<br>
Format : E-AC-3<br>
Format/Info : Enhanced AC-3<br>
Commercial name : Dolby Digital Plus<br>
Codec ID : A_EAC3<br>
Duration : 1 h 43 min<br>
Bit rate mode : Constant<br>
Bit rate : 256 kb/s<br>
Channel(s) : 6 channels<br>
Channel layout : L R C LFE Ls Rs<br>
Sampling rate : 48.0 kHz<br>
Frame rate : 31.250 FPS (1536 SPF)<br>
Compression mode : Lossy<br>
Stream size : 190 MiB (2%)<br>
Language : Korean<br>
Service kind : Complete Main<br>
Default : No<br>
Forced : No<br>
Dialog Normalization : -27 dB<br>
compr : -0.28 dB<br>
mixlevel : 105 dB<br>
roomtyp : Small<br>
dialnorm_Average : -27 dB<br>
dialnorm_Minimum : -27 dB<br>
dialnorm_Maximum : -27 dB<br>
<br>
Audio #13<br>
ID : 14<br>
Format : E-AC-3<br>
Format/Info : Enhanced AC-3<br>
Commercial name : Dolby Digital Plus<br>
Codec ID : A_EAC3<br>
Duration : 1 h 43 min<br>
Bit rate mode : Constant<br>
Bit rate : 256 kb/s<br>
Channel(s) : 6 channels<br>
Channel layout : L R C LFE Ls Rs<br>
Sampling rate : 48.0 kHz<br>
Frame rate : 31.250 FPS (1536 SPF)<br>
Compression mode : Lossy<br>
Stream size : 190 MiB (2%)<br>
Language : Polish<br>
Service kind : Complete Main<br>
Default : No<br>
Forced : No<br>
Dialog Normalization : -27 dB<br>
compr : -0.28 dB<br>
mixlevel : 105 dB<br>
roomtyp : Small<br>
dialnorm_Average : -27 dB<br>
dialnorm_Minimum : -27 dB<br>
dialnorm_Maximum : -27 dB<br>
<br>
Audio #14<br>
ID : 15<br>
Format : E-AC-3<br>
Format/Info : Enhanced AC-3<br>
Commercial name : Dolby Digital Plus<br>
Codec ID : A_EAC3<br>
Duration : 1 h 43 min<br>
Bit rate mode : Constant<br>
Bit rate : 256 kb/s<br>
Channel(s) : 6 channels<br>
Channel layout : L R C LFE Ls Rs<br>
Sampling rate : 48.0 kHz<br>
Frame rate : 31.250 FPS (1536 SPF)<br>
Compression mode : Lossy<br>
Stream size : 190 MiB (2%)<br>
Title : Brazilian<br>
Language : Portuguese<br>
Service kind : Complete Main<br>
Default : No<br>
Forced : No<br>
Dialog Normalization : -27 dB<br>
compr : -0.28 dB<br>
mixlevel : 105 dB<br>
roomtyp : Small<br>
dialnorm_Average : -27 dB<br>
dialnorm_Minimum : -27 dB<br>
dialnorm_Maximum : -27 dB<br>
<br>
Audio #15<br>
ID : 16<br>
Format : E-AC-3<br>
Format/Info : Enhanced AC-3<br>
Commercial name : Dolby Digital Plus<br>
Codec ID : A_EAC3<br>
Duration : 1 h 43 min<br>
Bit rate mode : Constant<br>
Bit rate : 256 kb/s<br>
Channel(s) : 6 channels<br>
Channel layout : L R C LFE Ls Rs<br>
Sampling rate : 48.0 kHz<br>
Frame rate : 31.250 FPS (1536 SPF)<br>
Compression mode : Lossy<br>
Stream size : 190 MiB (2%)<br>
Language : Romanian<br>
Service kind : Complete Main<br>
Default : No<br>
Forced : No<br>
Dialog Normalization : -26 dB<br>
compr : -0.28 dB<br>
mixlevel : 105 dB<br>
roomtyp : Small<br>
dialnorm_Average : -26 dB<br>
dialnorm_Minimum : -26 dB<br>
dialnorm_Maximum : -26 dB<br>
<br>
Audio #16<br>
ID : 17<br>
Format : E-AC-3<br>
Format/Info : Enhanced AC-3<br>
Commercial name : Dolby Digital Plus<br>
Codec ID : A_EAC3<br>
Duration : 1 h 43 min<br>
Bit rate mode : Constant<br>
Bit rate : 256 kb/s<br>
Channel(s) : 6 channels<br>
Channel layout : L R C LFE Ls Rs<br>
Sampling rate : 48.0 kHz<br>
Frame rate : 31.250 FPS (1536 SPF)<br>
Compression mode : Lossy<br>
Stream size : 190 MiB (2%)<br>
Language : Slovak<br>
Service kind : Complete Main<br>
Default : No<br>
Forced : No<br>
Dialog Normalization : -26 dB<br>
compr : -0.28 dB<br>
mixlevel : 105 dB<br>
roomtyp : Small<br>
dialnorm_Average : -26 dB<br>
dialnorm_Minimum : -26 dB<br>
dialnorm_Maximum : -26 dB<br>
<br>
Audio #17<br>
ID : 18<br>
Format : E-AC-3<br>
Format/Info : Enhanced AC-3<br>
Commercial name : Dolby Digital Plus<br>
Codec ID : A_EAC3<br>
Duration : 1 h 43 min<br>
Bit rate mode : Constant<br>
Bit rate : 256 kb/s<br>
Channel(s) : 6 channels<br>
Channel layout : L R C LFE Ls Rs<br>
Sampling rate : 48.0 kHz<br>
Frame rate : 31.250 FPS (1536 SPF)<br>
Compression mode : Lossy<br>
Stream size : 190 MiB (2%)<br>
Language : Turkish<br>
Service kind : Complete Main<br>
Default : No<br>
Forced : No<br>
Dialog Normalization : -28 dB<br>
compr : -0.28 dB<br>
mixlevel : 105 dB<br>
roomtyp : Small<br>
dialnorm_Average : -28 dB<br>
dialnorm_Minimum : -28 dB<br>
dialnorm_Maximum : -28 dB<br>
<br>
Text #1<br>
ID : 19<br>
Format : UTF-8<br>
Codec ID : S_TEXT/UTF8<br>
Codec ID/Info : UTF-8 Plain Text<br>
Duration : 1 h 35 min<br>
Bit rate : 94 b/s<br>
Frame rate : 0.361 FPS<br>
Count of elements : 2063<br>
Stream size : 65.8 KiB (0%)<br>
Title : SDH<br>
Language : English<br>
Default : No<br>
Forced : No<br>
<br>
Text #2<br>
ID : 20<br>
Format : UTF-8<br>
Codec ID : S_TEXT/UTF8<br>
Codec ID/Info : UTF-8 Plain Text<br>
Duration : 1 h 42 min<br>
Bit rate : 3 b/s<br>
Frame rate : 0.015 FPS<br>
Count of elements : 90<br>
Stream size : 2.94 KiB (0%)<br>
Title : Mandarin (Forced)<br>
Language : Chinese<br>
Default : No<br>
Forced : Yes<br>
<br>
Text #3<br>
ID : 21<br>
Format : UTF-8<br>
Codec ID : S_TEXT/UTF8<br>
Codec ID/Info : UTF-8 Plain Text<br>
Duration : 1 h 41 min<br>
Bit rate : 0 b/s<br>
Frame rate : 0.001 FPS<br>
Count of elements : 9<br>
Stream size : 171 Bytes (0%)<br>
Title : Forced<br>
Language : Czech<br>
Default : No<br>
Forced : Yes<br>
<br>
Text #4<br>
ID : 22<br>
Format : UTF-8<br>
Codec ID : S_TEXT/UTF8<br>
Codec ID/Info : UTF-8 Plain Text<br>
Duration : 1 h 42 min<br>
Bit rate : 69 b/s<br>
Frame rate : 0.281 FPS<br>
Count of elements : 1729<br>
Stream size : 52.0 KiB (0%)<br>
Language : Czech<br>
Default : No<br>
Forced : No<br>
<br>
Text #5<br>
ID : 23<br>
Format : UTF-8<br>
Codec ID : S_TEXT/UTF8<br>
Codec ID/Info : UTF-8 Plain Text<br>
Duration : 1 h 42 min<br>
Bit rate : 65 b/s<br>
Frame rate : 0.279 FPS<br>
Count of elements : 1715<br>
Stream size : 48.9 KiB (0%)<br>
Language : Danish<br>
Default : No<br>
Forced : No<br>
<br>
Text #6<br>
ID : 24<br>
Format : UTF-8<br>
Codec ID : S_TEXT/UTF8<br>
Codec ID/Info : UTF-8 Plain Text<br>
Duration : 1 h 33 min<br>
Bit rate : 3 b/s<br>
Frame rate : 0.011 FPS<br>
Count of elements : 62<br>
Stream size : 2.40 KiB (0%)<br>
Title : Forced<br>
Language : German<br>
Default : No<br>
Forced : Yes<br>
<br>
Text #7<br>
ID : 25<br>
Format : UTF-8<br>
Codec ID : S_TEXT/UTF8<br>
Codec ID/Info : UTF-8 Plain Text<br>
Duration : 1 h 42 min<br>
Bit rate : 69 b/s<br>
Frame rate : 0.281 FPS<br>
Count of elements : 1727<br>
Stream size : 51.8 KiB (0%)<br>
Language : German<br>
Default : No<br>
Forced : No<br>
<br>
Text #8<br>
ID : 26<br>
Format : UTF-8<br>
Codec ID : S_TEXT/UTF8<br>
Codec ID/Info : UTF-8 Plain Text<br>
Duration : 1 h 42 min<br>
Bit rate : 122 b/s<br>
Frame rate : 0.281 FPS<br>
Count of elements : 1728<br>
Stream size : 91.9 KiB (0%)<br>
Language : Greek<br>
Default : No<br>
Forced : No<br>
<br>
Text #9<br>
ID : 27<br>
Format : UTF-8<br>
Codec ID : S_TEXT/UTF8<br>
Codec ID/Info : UTF-8 Plain Text<br>
Duration : 1 h 41 min<br>
Bit rate : 0 b/s<br>
Frame rate : 0.002 FPS<br>
Count of elements : 10<br>
Stream size : 210 Bytes (0%)<br>
Title : Latin American (Forced)<br>
Language : Spanish<br>
Default : No<br>
Forced : Yes<br>
<br>
Text #10<br>
ID : 28<br>
Format : UTF-8<br>
Codec ID : S_TEXT/UTF8<br>
Codec ID/Info : UTF-8 Plain Text<br>
Duration : 1 h 42 min<br>
Bit rate : 69 b/s<br>
Frame rate : 0.281 FPS<br>
Count of elements : 1723<br>
Stream size : 52.4 KiB (0%)<br>
Title : Latin American<br>
Language : Spanish<br>
Default : No<br>
Forced : No<br>
<br>
Text #11<br>
ID : 29<br>
Format : UTF-8<br>
Codec ID : S_TEXT/UTF8<br>
Codec ID/Info : UTF-8 Plain Text<br>
Duration : 1 h 41 min<br>
Bit rate : 2 b/s<br>
Frame rate : 0.007 FPS<br>
Count of elements : 42<br>
Stream size : 1.60 KiB (0%)<br>
Title : European (Forced)<br>
Language : Spanish<br>
Default : No<br>
Forced : Yes<br>
<br>
Text #12<br>
ID : 30<br>
Format : UTF-8<br>
Codec ID : S_TEXT/UTF8<br>
Codec ID/Info : UTF-8 Plain Text<br>
Duration : 1 h 42 min<br>
Bit rate : 66 b/s<br>
Frame rate : 0.280 FPS<br>
Count of elements : 1722<br>
Stream size : 49.8 KiB (0%)<br>
Title : European<br>
Language : Spanish<br>
Default : No<br>
Forced : No<br>
<br>
Text #13<br>
ID : 31<br>
Format : UTF-8<br>
Codec ID : S_TEXT/UTF8<br>
Codec ID/Info : UTF-8 Plain Text<br>
Duration : 1 h 42 min<br>
Bit rate : 69 b/s<br>
Frame rate : 0.278 FPS<br>
Count of elements : 1706<br>
Stream size : 52.5 KiB (0%)<br>
Language : Finnish<br>
Default : No<br>
Forced : No<br>
<br>
Text #14<br>
ID : 32<br>
Format : UTF-8<br>
Codec ID : S_TEXT/UTF8<br>
Codec ID/Info : UTF-8 Plain Text<br>
Duration : 1 h 39 min<br>
Bit rate : 3 b/s<br>
Frame rate : 0.011 FPS<br>
Count of elements : 63<br>
Stream size : 2.48 KiB (0%)<br>
Title : Forced<br>
Language : French<br>
Default : No<br>
Forced : Yes<br>
<br>
Text #15<br>
ID : 33<br>
Format : UTF-8<br>
Codec ID : S_TEXT/UTF8<br>
Codec ID/Info : UTF-8 Plain Text<br>
Duration : 1 h 40 min<br>
Bit rate : 68 b/s<br>
Frame rate : 0.264 FPS<br>
Count of elements : 1596<br>
Stream size : 50.2 KiB (0%)<br>
Language : French<br>
Default : No<br>
Forced : No<br>
<br>
Text #16<br>
ID : 34<br>
Format : UTF-8<br>
Codec ID : S_TEXT/UTF8<br>
Codec ID/Info : UTF-8 Plain Text<br>
Duration : 1 h 41 min<br>
Bit rate : 0 b/s<br>
Frame rate : 0.002 FPS<br>
Count of elements : 12<br>
Stream size : 272 Bytes (0%)<br>
Title : Forced<br>
Language : Hungarian<br>
Default : No<br>
Forced : Yes<br>
<br>
Text #17<br>
ID : 35<br>
Format : UTF-8<br>
Codec ID : S_TEXT/UTF8<br>
Codec ID/Info : UTF-8 Plain Text<br>
Duration : 1 h 42 min<br>
Bit rate : 72 b/s<br>
Frame rate : 0.281 FPS<br>
Count of elements : 1728<br>
Stream size : 54.2 KiB (0%)<br>
Language : Hungarian<br>
Default : No<br>
Forced : No<br>
<br>
Text #18<br>
ID : 36<br>
Format : UTF-8<br>
Codec ID : S_TEXT/UTF8<br>
Codec ID/Info : UTF-8 Plain Text<br>
Duration : 1 h 41 min<br>
Bit rate : 4 b/s<br>
Frame rate : 0.014 FPS<br>
Count of elements : 84<br>
Stream size : 3.02 KiB (0%)<br>
Title : Forced<br>
Language : Italian<br>
Default : No<br>
Forced : Yes<br>
<br>
Text #19<br>
ID : 37<br>
Format : UTF-8<br>
Codec ID : S_TEXT/UTF8<br>
Codec ID/Info : UTF-8 Plain Text<br>
Duration : 1 h 42 min<br>
Bit rate : 68 b/s<br>
Frame rate : 0.281 FPS<br>
Count of elements : 1728<br>
Stream size : 51.2 KiB (0%)<br>
Language : Italian<br>
Default : No<br>
Forced : No<br>
<br>
Text #20<br>
ID : 38<br>
Format : UTF-8<br>
Codec ID : S_TEXT/UTF8<br>
Codec ID/Info : UTF-8 Plain Text<br>
Duration : 1 h 42 min<br>
Bit rate : 2 b/s<br>
Frame rate : 0.011 FPS<br>
Count of elements : 68<br>
Stream size : 2.11 KiB (0%)<br>
Title : Forced<br>
Language : Japanese<br>
Default : No<br>
Forced : Yes<br>
<br>
Text #21<br>
ID : 39<br>
Format : UTF-8<br>
Codec ID : S_TEXT/UTF8<br>
Codec ID/Info : UTF-8 Plain Text<br>
Duration : 1 h 42 min<br>
Bit rate : 57 b/s<br>
Frame rate : 0.248 FPS<br>
Count of elements : 1522<br>
Stream size : 42.9 KiB (0%)<br>
Language : Japanese<br>
Default : No<br>
Forced : No<br>
<br>
Text #22<br>
ID : 40<br>
Format : UTF-8<br>
Codec ID : S_TEXT/UTF8<br>
Codec ID/Info : UTF-8 Plain Text<br>
Duration : 1 h 42 min<br>
Bit rate : 2 b/s<br>
Frame rate : 0.010 FPS<br>
Count of elements : 64<br>
Stream size : 2.17 KiB (0%)<br>
Title : Forced<br>
Language : Korean<br>
Default : No<br>
Forced : Yes<br>
<br>
Text #23<br>
ID : 41<br>
Format : UTF-8<br>
Codec ID : S_TEXT/UTF8<br>
Codec ID/Info : UTF-8 Plain Text<br>
Duration : 1 h 42 min<br>
Bit rate : 72 b/s<br>
Frame rate : 0.281 FPS<br>
Count of elements : 1728<br>
Stream size : 54.4 KiB (0%)<br>
Language : Korean<br>
Default : No<br>
Forced : No<br>
<br>
Text #24<br>
ID : 42<br>
Format : UTF-8<br>
Codec ID : S_TEXT/UTF8<br>
Codec ID/Info : UTF-8 Plain Text<br>
Duration : 1 h 42 min<br>
Bit rate : 65 b/s<br>
Frame rate : 0.279 FPS<br>
Count of elements : 1711<br>
Stream size : 49.4 KiB (0%)<br>
Language : Dutch<br>
Default : No<br>
Forced : No<br>
<br>
Text #25<br>
ID : 43<br>
Format : UTF-8<br>
Codec ID : S_TEXT/UTF8<br>
Codec ID/Info : UTF-8 Plain Text<br>
Duration : 1 h 42 min<br>
Bit rate : 62 b/s<br>
Frame rate : 0.281 FPS<br>
Count of elements : 1727<br>
Stream size : 47.0 KiB (0%)<br>
Language : Norwegian<br>
Default : No<br>
Forced : No<br>
<br>
Text #26<br>
ID : 44<br>
Format : UTF-8<br>
Codec ID : S_TEXT/UTF8<br>
Codec ID/Info : UTF-8 Plain Text<br>
Duration : 1 h 41 min<br>
Bit rate : 3 b/s<br>
Frame rate : 0.011 FPS<br>
Count of elements : 66<br>
Stream size : 2.55 KiB (0%)<br>
Title : Forced<br>
Language : Polish<br>
Default : No<br>
Forced : Yes<br>
<br>
Text #27<br>
ID : 45<br>
Format : UTF-8<br>
Codec ID : S_TEXT/UTF8<br>
Codec ID/Info : UTF-8 Plain Text<br>
Duration : 1 h 42 min<br>
Bit rate : 64 b/s<br>
Frame rate : 0.281 FPS<br>
Count of elements : 1728<br>
Stream size : 48.2 KiB (0%)<br>
Language : Polish<br>
Default : No<br>
Forced : No<br>
<br>
Text #28<br>
ID : 46<br>
Format : UTF-8<br>
Codec ID : S_TEXT/UTF8<br>
Codec ID/Info : UTF-8 Plain Text<br>
Duration : 1 h 42 min<br>
Bit rate : 62 b/s<br>
Frame rate : 0.273 FPS<br>
Count of elements : 1678<br>
Stream size : 46.8 KiB (0%)<br>
Title : Brazilian<br>
Language : Portuguese<br>
Default : No<br>
Forced : No<br>
<br>
Text #29<br>
ID : 47<br>
Format : UTF-8<br>
Codec ID : S_TEXT/UTF8<br>
Codec ID/Info : UTF-8 Plain Text<br>
Duration : 1 h 33 min<br>
Bit rate : 3 b/s<br>
Frame rate : 0.012 FPS<br>
Count of elements : 69<br>
Stream size : 2.21 KiB (0%)<br>
Title : Brazilian (Forced)<br>
Language : Portuguese<br>
Default : No<br>
Forced : Yes<br>
<br>
Text #30<br>
ID : 48<br>
Format : UTF-8<br>
Codec ID : S_TEXT/UTF8<br>
Codec ID/Info : UTF-8 Plain Text<br>
Duration : 1 h 42 min<br>
Bit rate : 71 b/s<br>
Frame rate : 0.281 FPS<br>
Count of elements : 1726<br>
Stream size : 53.8 KiB (0%)<br>
Title : European<br>
Language : Portuguese<br>
Default : No<br>
Forced : No<br>
<br>
Text #31<br>
ID : 49<br>
Format : UTF-8<br>
Codec ID : S_TEXT/UTF8<br>
Codec ID/Info : UTF-8 Plain Text<br>
Duration : 59 min 29 s<br>
Bit rate : 4 b/s<br>
Frame rate : 0.015 FPS<br>
Count of elements : 52<br>
Stream size : 1.80 KiB (0%)<br>
Title : Forced<br>
Language : Romanian<br>
Default : No<br>
Forced : Yes<br>
<br>
Text #32<br>
ID : 50<br>
Format : UTF-8<br>
Codec ID : S_TEXT/UTF8<br>
Codec ID/Info : UTF-8 Plain Text<br>
Duration : 1 h 42 min<br>
Bit rate : 71 b/s<br>
Frame rate : 0.281 FPS<br>
Count of elements : 1727<br>
Stream size : 53.3 KiB (0%)<br>
Language : Romanian<br>
Default : No<br>
Forced : No<br>
<br>
Text #33<br>
ID : 51<br>
Format : UTF-8<br>
Codec ID : S_TEXT/UTF8<br>
Codec ID/Info : UTF-8 Plain Text<br>
Duration : 1 h 42 min<br>
Bit rate : 2 b/s<br>
Frame rate : 0.008 FPS<br>
Count of elements : 52<br>
Stream size : 1.86 KiB (0%)<br>
Title : Forced<br>
Language : Slovak<br>
Default : No<br>
Forced : Yes<br>
<br>
Text #34<br>
ID : 52<br>
Format : UTF-8<br>
Codec ID : S_TEXT/UTF8<br>
Codec ID/Info : UTF-8 Plain Text<br>
Duration : 1 h 42 min<br>
Bit rate : 72 b/s<br>
Frame rate : 0.280 FPS<br>
Count of elements : 1724<br>
Stream size : 54.2 KiB (0%)<br>
Language : Slovak<br>
Default : No<br>
Forced : No<br>
<br>
Text #35<br>
ID : 53<br>
Format : UTF-8<br>
Codec ID : S_TEXT/UTF8<br>
Codec ID/Info : UTF-8 Plain Text<br>
Duration : 1 h 42 min<br>
Bit rate : 67 b/s<br>
Frame rate : 0.281 FPS<br>
Count of elements : 1727<br>
Stream size : 50.4 KiB (0%)<br>
Language : Swedish<br>
Default : No<br>
Forced : No<br>
<br>
Text #36<br>
ID : 54<br>
Format : UTF-8<br>
Codec ID : S_TEXT/UTF8<br>
Codec ID/Info : UTF-8 Plain Text<br>
Duration : 1 h 41 min<br>
Bit rate : 0 b/s<br>
Frame rate : 0.004 FPS<br>
Count of elements : 27<br>
Stream size : 728 Bytes (0%)<br>
Title : Forced<br>
Language : Turkish<br>
Default : No<br>
Forced : Yes<br>
<br>
Text #37<br>
ID : 55<br>
Format : UTF-8<br>
Codec ID : S_TEXT/UTF8<br>
Codec ID/Info : UTF-8 Plain Text<br>
Duration : 1 h 42 min<br>
Bit rate : 73 b/s<br>
Frame rate : 0.280 FPS<br>
Count of elements : 1721<br>
Stream size : 54.8 KiB (0%)<br>
Language : Turkish<br>
Default : No<br>
Forced : No<br>
<br>
Text #38<br>
ID : 56<br>
Format : UTF-8<br>
Codec ID : S_TEXT/UTF8<br>
Codec ID/Info : UTF-8 Plain Text<br>
Duration : 1 h 42 min<br>
Bit rate : 61 b/s<br>
Frame rate : 0.282 FPS<br>
Count of elements : 1736<br>
Stream size : 46.4 KiB (0%)<br>
Title : Traditional, Hong Kong<br>
Language : Chinese<br>
Default : No<br>
Forced : No<br>
<br>
Text #39<br>
ID : 57<br>
Format : UTF-8<br>
Codec ID : S_TEXT/UTF8<br>
Codec ID/Info : UTF-8 Plain Text<br>
Duration : 1 h 42 min<br>
Bit rate : 58 b/s<br>
Frame rate : 0.283 FPS<br>
Count of elements : 1738<br>
Stream size : 44.1 KiB (0%)<br>
Title : Simplified<br>
Language : Chinese<br>
Default : No<br>
Forced : No<br>
<br>
Text #40<br>
ID : 58<br>
Format : UTF-8<br>
Codec ID : S_TEXT/UTF8<br>
Codec ID/Info : UTF-8 Plain Text<br>
Duration : 1 h 42 min<br>
Bit rate : 66 b/s<br>
Frame rate : 0.286 FPS<br>
Count of elements : 1756<br>
Stream size : 50.2 KiB (0%)<br>
Title : Traditional<br>
Language : Chinese<br>
Default : No<br>
Forced : No<br>
<br>
Menu<br>
00:00:00.000 : en:Scene 1<br>
00:31:49.917 : en:Scene 2<br>
00:38:29.458 : en:Scene 3<br>
00:49:26.292 : en:Scene 4<br>
01:03:40.167 : en:Scene 5<br>
01:14:05.042 : en:Scene 6<br>
01:23:23.250 : en:Scene 7<br>
01:36:04.833 : en:Credits</div>
</div><br>
<b>Screenshots</b><br>
<img src="https://i.imgur.com/vb4O3CG.png" class="bbCodeImage LbImage" alt="[​IMG]" data-url="https://i.imgur.com/vb4O3CG.png" style=""><br>
<br>
<b>Download</b><br>
<div class="bbCodeBlock bbCodeVfcHH HiddenContent">
<div class="attribution type">Hidden Content:</div>
<blockquote>You must reply before you can see the hidden data contained here.</blockquote>
</div></div>
<div class="messageTextEndMarker">&nbsp;</div>
</blockquote>
</article>]]></description>
                <author><![CDATA[Samuel]]></author>
                </item>

                </channel></rss>